<?xml version="1.0" encoding="utf-8"?>
<!-- Generator: Adobe Illustrator 27.5.0, SVG Export Plug-In . SVG Version: 6.00 Build 0)  -->
<svg version="1.1" xmlns="http://www.w3.org/2000/svg" xmlns:xlink="http://www.w3.org/1999/xlink" x="0px" y="0px"
	 viewBox="0 0 750 500" style="enable-background:new 0 0 750 500;" xml:space="preserve">
<g id="BACKGROUND">
	<linearGradient id="SVGID_1_" gradientUnits="userSpaceOnUse" x1="50.307" y1="-4.4089" x2="744.8953" y2="539.8265">
		<stop  offset="0" style="stop-color:#262E42"/>
		<stop  offset="0.5072" style="stop-color:#242C3A"/>
		<stop  offset="1" style="stop-color:#21282E"/>
	</linearGradient>
	<rect style="fill:url(#SVGID_1_);" width="750" height="500"/>
	<g>
		<defs>
			<rect id="SVGID_00000148662058741788806600000009197825732670139060_" width="750" height="500"/>
		</defs>
		<clipPath id="SVGID_00000111906220954706720130000001651134537406696093_">
			<use xlink:href="#SVGID_00000148662058741788806600000009197825732670139060_"  style="overflow:visible;"/>
		</clipPath>
	</g>
</g>
<g id="OBJECTS">
	<g>
		<g>
			<g>
				<path style="fill:#0B1825;" d="M216.579,124.944H65.383c-15.361,0-27.814-12.453-27.814-27.814v0
					c0-15.361,12.453-27.814,27.814-27.814h151.196c15.361,0,27.814,12.453,27.814,27.814v0
					C244.393,112.492,231.94,124.944,216.579,124.944z"/>
				<g>
					<g>
						<path style="fill:#274157;" d="M71.711,87.822l-7.932,3.825c-0.261,0.126-0.428,0.391-0.428,0.681v13.432
							c0,0.417,0.338,0.756,0.756,0.756h3.632c0.417,0,0.756-0.338,0.756-0.756v-6.706c0-0.418,0.338-0.756,0.756-0.756h5.578
							c0.418,0,0.756,0.338,0.756,0.756v6.706c0,0.417,0.338,0.756,0.756,0.756h3.632c0.417,0,0.756-0.338,0.756-0.756V92.327
							c0-0.29-0.166-0.555-0.427-0.681l-7.932-3.825C72.16,87.722,71.919,87.722,71.711,87.822z"/>
						<g>
							<g>
								<path style="fill:#FFFFFF;" d="M124.889,100.381c3.177-3.177,2.96-8.462-0.65-11.351c-2.737-2.191-6.744-2.188-9.479,0.006
									c-3.005,2.411-3.647,6.48-1.939,9.607l-4.835,4.835c-0.48,0.48-0.48,1.258,0,1.738l1.297,1.297
									c0.48,0.48,1.258,0.48,1.738,0l4.835-4.835C118.747,103.257,122.442,102.828,124.889,100.381z M116.37,98.129
									c-1.73-1.73-1.73-4.536,0-6.266c1.73-1.73,4.536-1.73,6.266,0c1.73,1.73,1.73,4.536,0,6.266
									C120.906,99.859,118.101,99.859,116.37,98.129z"/>
							</g>
						</g>
						<path style="fill:#274157;" d="M172.059,87.798h-18.705c-1.176,0-2.13,0.953-2.13,2.13v10.186c0,1.176,0.954,2.13,2.13,2.13
							h7.417l1.44,3.883c0.166,0.448,0.8,0.448,0.966,0l1.44-3.883h7.441c1.176,0,2.13-0.954,2.13-2.13V89.928
							C174.188,88.752,173.235,87.798,172.059,87.798z M155.662,96.248c-0.625,0-1.132-0.507-1.132-1.132
							c0-0.625,0.507-1.132,1.132-1.132s1.132,0.507,1.132,1.132C156.795,95.741,156.288,96.248,155.662,96.248z M162.706,96.248
							c-0.625,0-1.132-0.507-1.132-1.132c0-0.625,0.507-1.132,1.132-1.132s1.132,0.507,1.132,1.132
							C163.839,95.741,163.332,96.248,162.706,96.248z M169.75,96.248c-0.625,0-1.132-0.507-1.132-1.132
							c0-0.625,0.507-1.132,1.132-1.132c0.625,0,1.132,0.507,1.132,1.132C170.883,95.741,170.376,96.248,169.75,96.248z"/>
						<path style="fill:#274157;" d="M216.922,95.277h-0.98c-0.203-0.871-0.546-1.687-1.004-2.425l0.693-0.693
							c0.299-0.299,0.299-0.783,0-1.081l-1.539-1.539c-0.299-0.299-0.783-0.299-1.081,0l-0.693,0.693
							c-0.738-0.459-1.554-0.801-2.425-1.004v-0.98c0-0.422-0.342-0.765-0.765-0.765h-2.176c-0.422,0-0.765,0.342-0.765,0.765v0.98
							c-0.871,0.203-1.687,0.546-2.425,1.004l-0.693-0.693c-0.299-0.299-0.783-0.299-1.082,0l-1.539,1.539
							c-0.299,0.299-0.299,0.783,0,1.081l0.693,0.693c-0.459,0.738-0.801,1.554-1.004,2.425h-0.98c-0.422,0-0.765,0.342-0.765,0.765
							v2.176c0,0.422,0.342,0.765,0.765,0.765h0.98c0.203,0.871,0.546,1.687,1.004,2.425l-0.693,0.693
							c-0.299,0.299-0.299,0.783,0,1.082l1.539,1.539c0.299,0.299,0.783,0.299,1.082,0l0.693-0.692
							c0.738,0.458,1.554,0.801,2.425,1.004v0.98c0,0.422,0.342,0.765,0.765,0.765h2.176c0.422,0,0.765-0.342,0.765-0.765v-0.98
							c0.871-0.203,1.687-0.546,2.425-1.004l0.693,0.692c0.299,0.299,0.783,0.299,1.081,0l1.539-1.539
							c0.299-0.299,0.299-0.783,0-1.082l-0.693-0.693c0.458-0.738,0.801-1.554,1.004-2.425h0.98c0.422,0,0.765-0.342,0.765-0.765
							v-2.176C217.687,95.62,217.344,95.277,216.922,95.277z M208.04,101.013c-2.144,0-3.882-1.738-3.882-3.882
							c0-2.144,1.738-3.882,3.882-3.882c2.144,0,3.882,1.738,3.882,3.882C211.922,99.275,210.184,101.013,208.04,101.013z"/>
					</g>
				</g>
			</g>
		</g>
		<g>
			<path style="fill:#0B1825;" d="M221.142,349.023H60.819c-12.277,0-22.23-9.953-22.23-22.23V167.898
				c0-12.277,9.952-22.23,22.23-22.23h160.323c12.277,0,22.23,9.953,22.23,22.23v158.896
				C243.372,339.07,233.42,349.023,221.142,349.023z"/>
			<g>
				<g>
					<text transform="matrix(1 0 0 1 63.8137 178.6086)" style="fill:#EFF4FF; font-family:'Prompt-Medium'; font-size:14px;">Login</text>
				</g>
				<text transform="matrix(1 0 0 1 63.8137 212.124)" style="fill:#70899E; font-family:'Prompt-Regular'; font-size:10px;">Janedoe@bmail.com</text>
				
					<text transform="matrix(1 0 0 1 63.8137 280.8299)" style="fill:#70899E; font-family:'Prompt-Regular'; font-size:10px; text-decoration: underline;">Forget Password?</text>
				<line style="fill:none;stroke:#274157;stroke-miterlimit:10;" x1="63.813" y1="222.923" x2="218.148" y2="222.923"/>
				<line style="fill:none;stroke:#274157;stroke-miterlimit:10;" x1="63.813" y1="259.008" x2="218.148" y2="259.008"/>
				<g>
					
						<linearGradient id="SVGID_00000110435503164012100840000003777266755171971730_" gradientUnits="userSpaceOnUse" x1="100.4617" y1="314.5989" x2="181.4999" y2="314.5989">
						<stop  offset="0" style="stop-color:#2D9D84"/>
						<stop  offset="0.0028" style="stop-color:#8B68FF"/>
						<stop  offset="0.987" style="stop-color:#6160E7"/>
						<stop  offset="1" style="stop-color:#6060E7"/>
					</linearGradient>
					<path style="fill:url(#SVGID_00000110435503164012100840000003777266755171971730_);" d="M168.019,328.08h-54.077
						c-7.445,0-13.481-6.035-13.481-13.481v0c0-7.445,6.035-13.481,13.481-13.481h54.077c7.445,0,13.481,6.035,13.481,13.481l0,0
						C181.5,322.044,175.464,328.08,168.019,328.08z"/>
					<text transform="matrix(1 0 0 1 120.9536 318.6927)" style="fill:#EFF4FF; font-family:'Prompt-Medium'; font-size:11px;">Sign Up</text>
				</g>
				<g>
					<g>
						<g>
							<g>
								<path style="fill:#274157;" d="M208.464,210.819c-0.139,0.087-0.295,0.121-0.433,0.121c-0.139,0-0.295-0.035-0.434-0.121
									l-6.9-4.213v5.6c0,1.196,0.971,2.167,2.167,2.167h10.351c1.196,0,2.167-0.971,2.167-2.167v-5.6L208.464,210.819z"/>
							</g>
						</g>
						<g>
							<g>
								<path style="fill:#274157;" d="M213.215,203.554h-10.351c-1.023,0-1.89,0.728-2.098,1.699l7.282,4.439l7.265-4.439
									C215.105,204.282,214.238,203.554,213.215,203.554z"/>
							</g>
						</g>
					</g>
				</g>
				<path style="fill:#274157;" d="M208.04,243.295c-3.334,0-6.329,1.441-8.404,3.731c-0.253,0.28-0.253,0.72,0,1
					c2.076,2.29,5.07,3.731,8.404,3.731c3.334,0,6.329-1.441,8.404-3.731c0.253-0.28,0.253-0.72,0-1
					C214.368,244.736,211.374,243.295,208.04,243.295z M208.671,250.692c-2.272,0.431-4.228-1.524-3.797-3.797
					c0.239-1.262,1.272-2.295,2.534-2.534c2.272-0.431,4.227,1.524,3.797,3.797C210.966,249.42,209.934,250.452,208.671,250.692z"/>
				<path style="fill:#70899E;" d="M69.794,247.473c0,1.121-0.909,2.029-2.029,2.029c-1.121,0-2.029-0.909-2.029-2.029
					c0-1.121,0.909-2.03,2.029-2.03C68.885,245.443,69.794,246.352,69.794,247.473z"/>
				<path style="fill:#70899E;" d="M82.853,247.473c0,1.121-0.909,2.029-2.029,2.029c-1.121,0-2.029-0.909-2.029-2.029
					c0-1.121,0.909-2.03,2.029-2.03C81.944,245.443,82.853,246.352,82.853,247.473z"/>
				<path style="fill:#70899E;" d="M95.912,247.473c0,1.121-0.909,2.029-2.029,2.029c-1.121,0-2.029-0.909-2.029-2.029
					c0-1.121,0.909-2.03,2.029-2.03C95.003,245.443,95.912,246.352,95.912,247.473z"/>
				<path style="fill:#70899E;" d="M108.97,247.473c0,1.121-0.909,2.029-2.029,2.029c-1.121,0-2.029-0.909-2.029-2.029
					c0-1.121,0.909-2.03,2.029-2.03C108.062,245.443,108.97,246.352,108.97,247.473z"/>
				<path style="fill:#70899E;" d="M122.029,247.473c0,1.121-0.909,2.029-2.029,2.029c-1.121,0-2.029-0.909-2.029-2.029
					c0-1.121,0.909-2.03,2.029-2.03C121.121,245.443,122.029,246.352,122.029,247.473z"/>
				<path style="fill:#70899E;" d="M135.088,247.473c0,1.121-0.909,2.029-2.029,2.029c-1.121,0-2.029-0.909-2.029-2.029
					c0-1.121,0.909-2.03,2.029-2.03C134.18,245.443,135.088,246.352,135.088,247.473z"/>
			</g>
		</g>
		<g>
			<g>
				<g>
					<path style="fill:#0B1825;" d="M216.579,429.886H65.383c-15.361,0-27.814-12.453-27.814-27.814l0,0
						c0-15.361,12.453-27.814,27.814-27.814h151.196c15.361,0,27.814,12.453,27.814,27.814l0,0
						C244.393,417.433,231.94,429.886,216.579,429.886z"/>
				</g>
			</g>
			<g>
				
					<linearGradient id="SVGID_00000060746921698948424170000006575460372502161068_" gradientUnits="userSpaceOnUse" x1="53.8044" y1="402.4029" x2="171.3336" y2="402.4029">
					<stop  offset="0" style="stop-color:#2D9D84"/>
					<stop  offset="0.0028" style="stop-color:#8B68FF"/>
					<stop  offset="0.987" style="stop-color:#6160E7"/>
					<stop  offset="1" style="stop-color:#6060E7"/>
				</linearGradient>
				<path style="fill:url(#SVGID_00000060746921698948424170000006575460372502161068_);" d="M157.853,415.884H67.285
					c-7.445,0-13.481-6.035-13.481-13.481v0c0-7.445,6.035-13.481,13.481-13.481h90.568c7.445,0,13.481,6.035,13.481,13.481l0,0
					C171.334,409.848,165.298,415.884,157.853,415.884z"/>
				<text transform="matrix(1 0 0 1 68.2962 406.4967)" style="fill:#EFF4FF; font-family:'Prompt-Medium'; font-size:11px;">Swipe to unlock</text>
			</g>
			<g>
				<path style="fill:#15232E;" d="M199.399,409.58c-0.237,0-0.475-0.084-0.666-0.254c-0.412-0.368-0.447-1.001-0.079-1.412
					l5.081-5.688l-5.081-5.687c-0.368-0.411-0.333-1.044,0.079-1.412c0.412-0.367,1.044-0.332,1.412,0.08l5.677,6.353
					c0.339,0.379,0.339,0.953,0,1.332l-5.677,6.353C199.948,409.467,199.674,409.58,199.399,409.58z"/>
				<path style="fill:#1E3242;" d="M207.869,409.58c-0.237,0-0.475-0.084-0.666-0.254c-0.412-0.368-0.447-1.001-0.079-1.412
					l5.081-5.688l-5.081-5.687c-0.368-0.411-0.333-1.044,0.079-1.412c0.412-0.367,1.044-0.332,1.412,0.08l5.677,6.353
					c0.339,0.379,0.339,0.953,0,1.332l-5.677,6.353C208.418,409.467,208.144,409.58,207.869,409.58z"/>
				<path style="fill:#274157;" d="M216.34,409.58c-0.237,0-0.475-0.084-0.666-0.254c-0.412-0.368-0.447-1.001-0.079-1.412
					l5.082-5.688l-5.082-5.687c-0.368-0.411-0.333-1.044,0.079-1.412c0.412-0.367,1.044-0.332,1.412,0.08l5.677,6.353
					c0.339,0.379,0.339,0.953,0,1.332l-5.677,6.353C216.889,409.467,216.615,409.58,216.34,409.58z"/>
			</g>
		</g>
		<g>
			<path style="fill:#0B1825;" d="M458.319,272.787H297.996c-12.277,0-22.23-9.953-22.23-22.23V91.662
				c0-12.277,9.953-22.23,22.23-22.23h160.323c12.277,0,22.23,9.953,22.23,22.23v158.896
				C480.549,262.835,470.596,272.787,458.319,272.787z"/>
			<path style="fill:#0B1825;" d="M458.319,272.787H297.996c-12.277,0-22.23-9.953-22.23-22.23V91.662
				c0-12.277,9.953-22.23,22.23-22.23h160.323c12.277,0,22.23,9.953,22.23,22.23v158.896
				C480.549,262.835,470.596,272.787,458.319,272.787z"/>
			
				<linearGradient id="SVGID_00000031194834155466827350000002946653335618782854_" gradientUnits="userSpaceOnUse" x1="299.4278" y1="249.4608" x2="465.3094" y2="192.2846">
				<stop  offset="0" style="stop-color:#0F2335"/>
				<stop  offset="0.4998" style="stop-color:#102538"/>
				<stop  offset="0.8647" style="stop-color:#122B41"/>
				<stop  offset="1" style="stop-color:#142F47"/>
			</linearGradient>
			<path style="fill:url(#SVGID_00000031194834155466827350000002946653335618782854_);" d="M447.618,251.874H309.265
				c-8.187,0-14.823-6.637-14.823-14.824v-29.647c0-8.187,6.637-14.823,14.823-14.823h138.353c8.187,0,14.824,6.637,14.824,14.823
				v29.647C462.441,245.237,455.804,251.874,447.618,251.874z"/>
			
				<text transform="matrix(1 0 0 1 308.3436 236.3483)" style="fill:#EFF4FF; font-family:'Prompt-SemiBold'; font-size:20.2159px;">$62,970</text>
			<text transform="matrix(1 0 0 1 308.8358 211.7299)" style="fill:#70899E; font-family:'Prompt-Regular'; font-size:10px;">Today</text>
			<g>
				<text transform="matrix(1 0 0 1 401.3924 226.868)" style="fill:#70899E; font-family:'Prompt-Regular'; font-size:10px;">5.3%</text>
				<g>
					
						<linearGradient id="SVGID_00000098912032245763057050000011969524914189016979_" gradientUnits="userSpaceOnUse" x1="431.6236" y1="212.4962" x2="447.8586" y2="235.084">
						<stop  offset="0" style="stop-color:#2D9D84"/>
						<stop  offset="0.0028" style="stop-color:#8B68FF"/>
						<stop  offset="0.987" style="stop-color:#6160E7"/>
						<stop  offset="1" style="stop-color:#6060E7"/>
					</linearGradient>
					<path style="fill:url(#SVGID_00000098912032245763057050000011969524914189016979_);" d="M443.009,231.475
						c-2.514,0.333-5.028,0.322-7.542-0.031c-2.226-0.313-4.001-2.089-4.314-4.314c-0.364-2.589-0.364-5.178,0-7.767
						c0.313-2.226,2.089-4.002,4.314-4.314c2.589-0.364,5.178-0.364,7.767,0c2.226,0.313,4.001,2.089,4.314,4.314
						c0.353,2.514,0.363,5.028,0.031,7.541C447.262,229.302,445.406,231.158,443.009,231.475z"/>
					<path style="fill:#FFFFFF;" d="M439.351,221.115c0.075,0,0.146,0.031,0.197,0.085l1.911,2.002
						c0.166,0.173,0.043,0.462-0.197,0.462h-1.001v2.093c0,0.251-0.204,0.455-0.455,0.455h-0.91c-0.251,0-0.455-0.204-0.455-0.455
						v-2.093h-1.001c-0.24,0-0.363-0.288-0.197-0.462l1.911-2.002C439.205,221.146,439.276,221.115,439.351,221.115z"/>
				</g>
			</g>
			<g>
				<defs>
					<path id="SVGID_00000028325649253665915190000002012167964850099875_" d="M458.319,69.432c12.277,0,22.23,9.953,22.23,22.23
						v158.896c0,12.277-9.952,22.23-22.23,22.23H297.996c-12.277,0-22.23-9.953-22.23-22.23V91.662
						c0-12.277,9.953-22.23,22.23-22.23"/>
				</defs>
				<clipPath id="SVGID_00000041296614153852305100000006313606648803309704_">
					<use xlink:href="#SVGID_00000028325649253665915190000002012167964850099875_"  style="overflow:visible;"/>
				</clipPath>
				<g style="clip-path:url(#SVGID_00000041296614153852305100000006313606648803309704_);">
					<g style="opacity:0.71;">
						
							<linearGradient id="SVGID_00000032623928640055866140000010022493796184965045_" gradientUnits="userSpaceOnUse" x1="382.0244" y1="224.4264" x2="382.0244" y2="102.5776">
							<stop  offset="0" style="stop-color:#2D9D84"/>
							<stop  offset="0.0028" style="stop-color:#121A24;stop-opacity:0"/>
							<stop  offset="0.243" style="stop-color:#24204F;stop-opacity:0.2409"/>
							<stop  offset="0.782" style="stop-color:#5230BA;stop-opacity:0.7814"/>
							<stop  offset="1" style="stop-color:#6536E7"/>
						</linearGradient>
						<path style="fill:url(#SVGID_00000032623928640055866140000010022493796184965045_);" d="M264.538,158.006
							c5.701,2.424,12.399-0.568,16.794-4.934c4.395-4.367,7.326-9.991,11.439-14.625c4.112-4.634,10.186-8.39,16.24-7.076
							c7.148,1.551,12.549,9.726,19.754,8.461c7.832-1.375,9.34-12.019,14.929-17.675c6.324-6.4,16.822-5.401,25.539-3.175
							c8.717,2.225,18.232,5.162,26.37,1.327c6.623-3.121,10.51-9.933,15.012-15.706c4.503-5.773,11.288-11.198,18.433-9.598
							c10.112,2.264,15.067,17.314,25.38,16.31c7.191-0.7,10.762-8.801,15.993-13.784c7.725-7.359,21.2-7.511,29.088-0.327v123.912
							H264.538V158.006z"/>
					</g>
					<g>
						<g>
							<path style="fill:#8B4FFF;" d="M264.206,159.212c4.705,1.901,9.95,0.544,14.081-2.106c4.593-2.947,7.724-7.473,10.826-11.852
								c3.19-4.504,6.585-9.031,11.681-11.495c2.425-1.173,5.219-1.755,7.885-1.182c2.112,0.454,4.012,1.512,5.817,2.662
								c3.577,2.277,7.063,5.301,11.413,5.875c3.962,0.523,7.483-1.365,9.908-4.409c2.509-3.148,4.038-6.915,6.174-10.303
								c2.44-3.871,5.819-6.425,10.335-7.389c10.408-2.223,20.551,3.108,30.743,4.205c5.354,0.576,10.868-0.108,15.45-3.112
								c4.11-2.695,7.105-6.664,9.976-10.576c3.067-4.18,6.16-8.426,10.641-11.207c4.019-2.494,8.684-3.193,12.914-0.813
								c6.534,3.676,10.063,11.353,17.128,14.241c3.611,1.476,7.663,0.946,10.876-1.238c3.663-2.49,6.107-6.297,8.936-9.617
								c2.968-3.483,6.495-6.006,10.986-7.113c4.324-1.066,8.994-0.773,13.134,0.879c2.022,0.807,3.895,1.975,5.516,3.424
								c1.196,1.069,2.97-0.693,1.768-1.768c-6.807-6.085-17.021-7.253-25.245-3.476c-4.17,1.915-7.095,5.189-9.904,8.709
								c-2.563,3.21-5.365,7.153-9.55,8.268c-7.592,2.022-13.02-6.615-17.77-10.989c-2.892-2.664-6.213-4.877-10.211-5.295
								c-5.112-0.535-9.915,2.189-13.608,5.475c-7.357,6.546-11.147,17.899-21.234,21.022c-5.503,1.704-11.397,0.674-16.87-0.623
								c-5.065-1.201-10.028-2.726-15.234-3.213c-4.682-0.438-9.613-0.091-13.862,2.08c-3.934,2.009-6.413,5.534-8.5,9.301
								c-1.81,3.267-3.421,7.175-6.464,9.517c-3.493,2.689-7.576,1.491-11.012-0.604c-3.732-2.275-7.202-5.378-11.586-6.326
								c-5.168-1.118-10.225,1.08-14.197,4.281c-8.387,6.76-11.836,19.832-23.162,22.764c-2.402,0.622-4.81,0.521-7.114-0.41
								C263.38,156.198,262.731,158.616,264.206,159.212L264.206,159.212z"/>
						</g>
					</g>
				</g>
			</g>
			<g>
				<g>
					<text transform="matrix(1 0 0 1 299.886 181.1662)" style="fill:#70899E; font-family:'Prompt-Medium'; font-size:8.4076px;">Jan</text>
				</g>
				<g>
					<text transform="matrix(1 0 0 1 334.7171 181.1662)" style="fill:#70899E; font-family:'Prompt-Medium'; font-size:8.4076px;">Feb</text>
				</g>
				<g>
					<text transform="matrix(1 0 0 1 369.5491 181.1662)" style="fill:#70899E; font-family:'Prompt-Medium'; font-size:8.4076px;">Mar</text>
				</g>
				<g>
					<text transform="matrix(1 0 0 1 404.3802 181.1662)" style="fill:#70899E; font-family:'Prompt-Medium'; font-size:8.4076px;">Apr</text>
				</g>
				<g>
					<text transform="matrix(1 0 0 1 439.2122 181.1662)" style="fill:#EAEEEE; font-family:'Prompt-Medium'; font-size:8.4076px;">May</text>
				</g>
				
					<linearGradient id="SVGID_00000050639704176411577730000011501133313270860974_" gradientUnits="userSpaceOnUse" x1="446.0884" y1="168.9158" x2="450.2922" y2="168.9158">
					<stop  offset="0" style="stop-color:#2D9D84"/>
					<stop  offset="0.0028" style="stop-color:#8B68FF"/>
					<stop  offset="0.987" style="stop-color:#6160E7"/>
					<stop  offset="1" style="stop-color:#6060E7"/>
				</linearGradient>
				<path style="fill:url(#SVGID_00000050639704176411577730000011501133313270860974_);" d="M450.292,168.916
					c0,1.161-0.941,2.102-2.102,2.102c-1.161,0-2.102-0.941-2.102-2.102c0-1.161,0.941-2.102,2.102-2.102
					C449.351,166.814,450.292,167.755,450.292,168.916z"/>
			</g>
		</g>
		<g>
			<path style="fill:#0B1825;" d="M458.319,350.214H297.996c-12.277,0-22.23-9.952-22.23-22.23v-18.584
				c0-12.277,9.953-22.23,22.23-22.23h160.323c12.277,0,22.23,9.953,22.23,22.23v18.584
				C480.549,340.262,470.596,350.214,458.319,350.214z"/>
			<g>
				<path style="fill:#274157;" d="M300.441,334.462L300.441,334.462c-1.949,0-3.529-1.58-3.529-3.529v-22.941
					c0-1.949,1.58-3.529,3.529-3.529l0,0c1.949,0,3.529,1.58,3.529,3.529v22.941C303.97,332.882,302.39,334.462,300.441,334.462z"/>
				<path style="fill:#274157;" d="M317.735,334.462L317.735,334.462c-1.949,0-3.529-1.58-3.529-3.529v-22.941
					c0-1.949,1.58-3.529,3.529-3.529l0,0c1.949,0,3.529,1.58,3.529,3.529v22.941C321.265,332.882,319.685,334.462,317.735,334.462z"
					/>
				<path style="fill:#274157;" d="M335.029,334.462L335.029,334.462c-1.949,0-3.529-1.58-3.529-3.529v-22.941
					c0-1.949,1.58-3.529,3.529-3.529h0c1.949,0,3.529,1.58,3.529,3.529v22.941C338.559,332.882,336.979,334.462,335.029,334.462z"/>
				<path style="fill:#274157;" d="M352.323,334.462L352.323,334.462c-1.949,0-3.529-1.58-3.529-3.529v-22.941
					c0-1.949,1.58-3.529,3.529-3.529l0,0c1.949,0,3.529,1.58,3.529,3.529v22.941C355.853,332.882,354.273,334.462,352.323,334.462z"
					/>
				<path style="fill:#274157;" d="M369.618,334.462L369.618,334.462c-1.949,0-3.529-1.58-3.529-3.529v-22.941
					c0-1.949,1.58-3.529,3.529-3.529l0,0c1.949,0,3.529,1.58,3.529,3.529v22.941C373.147,332.882,371.567,334.462,369.618,334.462z"
					/>
			</g>
			<g>
				
					<linearGradient id="SVGID_00000042722162500753487920000000986581056269349553_" gradientUnits="userSpaceOnUse" x1="287.3833" y1="309.5055" x2="334.3244" y2="373.3878">
					<stop  offset="0" style="stop-color:#2D9D84"/>
					<stop  offset="0.0028" style="stop-color:#8B68FF"/>
					<stop  offset="0.987" style="stop-color:#6160E7"/>
					<stop  offset="1" style="stop-color:#6060E7"/>
				</linearGradient>
				<path style="fill:url(#SVGID_00000042722162500753487920000000986581056269349553_);" d="M296.912,322.462v8.471
					c0,1.949,1.58,3.529,3.529,3.529c1.949,0,3.529-1.58,3.529-3.529v-8.471H296.912z"/>
				
					<linearGradient id="SVGID_00000170237210114337879720000017840364829438048668_" gradientUnits="userSpaceOnUse" x1="300.6908" y1="299.7271" x2="347.632" y2="363.6094">
					<stop  offset="0" style="stop-color:#2D9D84"/>
					<stop  offset="0.0028" style="stop-color:#8B68FF"/>
					<stop  offset="0.987" style="stop-color:#6160E7"/>
					<stop  offset="1" style="stop-color:#6060E7"/>
				</linearGradient>
				<path style="fill:url(#SVGID_00000170237210114337879720000017840364829438048668_);" d="M314.206,313.756v17.177
					c0,1.949,1.58,3.529,3.53,3.529c1.949,0,3.529-1.58,3.529-3.529v-17.177H314.206z"/>
				
					<linearGradient id="SVGID_00000044861891962565841090000011023865973924260763_" gradientUnits="userSpaceOnUse" x1="310.7984" y1="292.2999" x2="357.7395" y2="356.1822">
					<stop  offset="0" style="stop-color:#2D9D84"/>
					<stop  offset="0.0028" style="stop-color:#8B68FF"/>
					<stop  offset="0.987" style="stop-color:#6160E7"/>
					<stop  offset="1" style="stop-color:#6060E7"/>
				</linearGradient>
				<path style="fill:url(#SVGID_00000044861891962565841090000011023865973924260763_);" d="M331.5,318.462v12.471
					c0,1.949,1.58,3.529,3.529,3.529h0c1.949,0,3.529-1.58,3.529-3.529v-12.471H331.5z"/>
				
					<linearGradient id="SVGID_00000010306096801251658180000017298135474847901062_" gradientUnits="userSpaceOnUse" x1="323.8813" y1="282.6865" x2="370.8224" y2="346.5688">
					<stop  offset="0" style="stop-color:#2D9D84"/>
					<stop  offset="0.0028" style="stop-color:#8B68FF"/>
					<stop  offset="0.987" style="stop-color:#6160E7"/>
					<stop  offset="1" style="stop-color:#6060E7"/>
				</linearGradient>
				<path style="fill:url(#SVGID_00000010306096801251658180000017298135474847901062_);" d="M348.794,310.697v20.235
					c0,1.949,1.58,3.529,3.529,3.529c1.949,0,3.53-1.58,3.53-3.529v-20.235H348.794z"/>
				
					<linearGradient id="SVGID_00000068641732945633913300000013953518236247216316_" gradientUnits="userSpaceOnUse" x1="336.0335" y1="273.7571" x2="382.9747" y2="337.6394">
					<stop  offset="0" style="stop-color:#2D9D84"/>
					<stop  offset="0.0028" style="stop-color:#8B68FF"/>
					<stop  offset="0.987" style="stop-color:#6160E7"/>
					<stop  offset="1" style="stop-color:#6060E7"/>
				</linearGradient>
				<path style="fill:url(#SVGID_00000068641732945633913300000013953518236247216316_);" d="M369.618,334.462L369.618,334.462
					c-1.949,0-3.529-1.58-3.529-3.529v-22.941c0-1.949,1.58-3.529,3.529-3.529l0,0c1.949,0,3.529,1.58,3.529,3.529v22.941
					C373.147,332.882,371.567,334.462,369.618,334.462z"/>
			</g>
			
				<linearGradient id="SVGID_00000103971493130117541100000012750474491883435700_" gradientUnits="userSpaceOnUse" x1="389.2058" y1="320.2139" x2="465.7753" y2="320.2139">
				<stop  offset="0" style="stop-color:#0F2335"/>
				<stop  offset="0.4998" style="stop-color:#102538"/>
				<stop  offset="0.8647" style="stop-color:#122B41"/>
				<stop  offset="1" style="stop-color:#142F47"/>
			</linearGradient>
			<path style="fill:url(#SVGID_00000103971493130117541100000012750474491883435700_);" d="M455.912,330.078h-56.842
				c-5.447,0-9.864-4.416-9.864-9.864v0c0-5.448,4.416-9.864,9.864-9.864h56.842c5.448,0,9.864,4.416,9.864,9.864l0,0
				C465.775,325.661,461.359,330.078,455.912,330.078z"/>
			<text transform="matrix(1 0 0 1 403.191 324.1087)" style="fill:#70899E; font-family:'Prompt-Regular'; font-size:9px;">Transaction</text>
		</g>
		<g>
			<path style="fill:#0B1825;" d="M458.319,430.684H297.996c-12.277,0-22.23-9.953-22.23-22.23V389.87
				c0-12.277,9.953-22.23,22.23-22.23h160.323c12.277,0,22.23,9.953,22.23,22.23v18.584
				C480.549,420.731,470.596,430.684,458.319,430.684z"/>
			<g>
				<g>
					
						<linearGradient id="SVGID_00000118359956896077454250000006681735974843630503_" gradientUnits="userSpaceOnUse" x1="333.2329" y1="378.5123" x2="295.7538" y2="411.827">
						<stop  offset="0" style="stop-color:#0F2335"/>
						<stop  offset="0.4998" style="stop-color:#102538"/>
						<stop  offset="0.8647" style="stop-color:#122B41"/>
						<stop  offset="1" style="stop-color:#142F47"/>
					</linearGradient>
					<path style="fill:url(#SVGID_00000118359956896077454250000006681735974843630503_);" d="M320.521,409.686
						c-4.34,0.574-8.679,0.557-13.019-0.053c-3.842-0.54-6.908-3.605-7.447-7.447c-0.628-4.469-0.628-8.938,0-13.407
						c0.54-3.842,3.605-6.908,7.447-7.447c4.469-0.628,8.938-0.628,13.407,0c3.842,0.54,6.908,3.605,7.447,7.447
						c0.61,4.34,0.627,8.679,0.053,13.018C327.862,405.934,324.658,409.138,320.521,409.686z"/>
					<g>
						<g>
							
								<linearGradient id="SVGID_00000181795997637642245820000016820761607968864441_" gradientUnits="userSpaceOnUse" x1="310.7296" y1="388.2107" x2="319.4354" y2="407.0342">
								<stop  offset="0" style="stop-color:#2D9D84"/>
								<stop  offset="0.0028" style="stop-color:#8B68FF"/>
								<stop  offset="0.987" style="stop-color:#6160E7"/>
								<stop  offset="1" style="stop-color:#6060E7"/>
							</linearGradient>
							<path style="fill:url(#SVGID_00000181795997637642245820000016820761607968864441_);" d="M314.206,391.802
								c0.129,0,0.252,0.053,0.341,0.146l3.298,3.456c0.286,0.299,0.074,0.797-0.34,0.797h-1.728v3.613
								c0,0.433-0.352,0.785-0.785,0.785h-1.571c-0.433,0-0.785-0.352-0.785-0.785V396.2h-1.728c-0.414,0-0.626-0.498-0.34-0.797
								l3.298-3.456C313.954,391.855,314.077,391.802,314.206,391.802z"/>
						</g>
					</g>
				</g>
				<text transform="matrix(1 0 0 1 305.5586 421.8143)" style="fill:#70899E; font-family:'Prompt-Regular'; font-size:7px;">Send</text>
			</g>
			<g>
				<g>
					
						<linearGradient id="SVGID_00000036938367833105541590000010688980539837420940_" gradientUnits="userSpaceOnUse" x1="373.9543" y1="378.5124" x2="336.4752" y2="411.827">
						<stop  offset="0" style="stop-color:#0F2335"/>
						<stop  offset="0.4998" style="stop-color:#102538"/>
						<stop  offset="0.8647" style="stop-color:#122B41"/>
						<stop  offset="1" style="stop-color:#142F47"/>
					</linearGradient>
					<path style="fill:url(#SVGID_00000036938367833105541590000010688980539837420940_);" d="M361.242,409.686
						c-4.34,0.574-8.679,0.557-13.019-0.053c-3.842-0.54-6.908-3.605-7.447-7.447c-0.628-4.469-0.628-8.938,0-13.407
						c0.54-3.842,3.605-6.908,7.448-7.447c4.469-0.628,8.938-0.628,13.407,0c3.842,0.54,6.908,3.605,7.447,7.447
						c0.61,4.34,0.627,8.679,0.053,13.018C368.584,405.934,365.379,409.138,361.242,409.686z"/>
					<g>
						
							<linearGradient id="SVGID_00000171695957994272543820000001504259571727072386_" gradientUnits="userSpaceOnUse" x1="359.4943" y1="403.3982" x2="348.906" y2="386.9276">
							<stop  offset="0" style="stop-color:#2D9D84"/>
							<stop  offset="0.0028" style="stop-color:#8B68FF"/>
							<stop  offset="0.987" style="stop-color:#6160E7"/>
							<stop  offset="1" style="stop-color:#6060E7"/>
						</linearGradient>
						<path style="fill:url(#SVGID_00000171695957994272543820000001504259571727072386_);" d="M354.927,400.598
							c-0.129,0-0.252-0.053-0.34-0.146l-3.298-3.456c-0.286-0.299-0.074-0.797,0.34-0.797h1.728v-3.613
							c0-0.433,0.353-0.785,0.785-0.785h1.571c0.433,0,0.785,0.352,0.785,0.785v3.613h1.728c0.414,0,0.626,0.498,0.34,0.797
							l-3.298,3.456C355.179,400.545,355.056,400.598,354.927,400.598z"/>
					</g>
				</g>
				<text transform="matrix(1 0 0 1 341.7351 421.8143)" style="fill:#70899E; font-family:'Prompt-Regular'; font-size:7px;">Receive</text>
			</g>
			<g>
				<g>
					
						<linearGradient id="SVGID_00000088103605564525834050000006903063708093779589_" gradientUnits="userSpaceOnUse" x1="416.4174" y1="378.5124" x2="378.9384" y2="411.827">
						<stop  offset="0" style="stop-color:#2D9D84"/>
						<stop  offset="0.0028" style="stop-color:#8B68FF"/>
						<stop  offset="0.987" style="stop-color:#6160E7"/>
						<stop  offset="1" style="stop-color:#6060E7"/>
					</linearGradient>
					<path style="fill:url(#SVGID_00000088103605564525834050000006903063708093779589_);" d="M403.705,409.686
						c-4.34,0.574-8.679,0.557-13.019-0.053c-3.842-0.54-6.908-3.605-7.447-7.447c-0.628-4.469-0.628-8.938,0-13.407
						c0.54-3.842,3.605-6.908,7.448-7.447c4.469-0.628,8.938-0.628,13.407,0c3.842,0.54,6.908,3.605,7.447,7.447
						c0.61,4.34,0.627,8.679,0.053,13.018C411.047,405.934,407.842,409.138,403.705,409.686z"/>
					<g>
						<g>
							<g>
								<path style="fill:#FFFFFF;" d="M395.259,399.209c0.746,0,1.35,0.604,1.35,1.35c0,0.745-0.604,1.35-1.35,1.35
									c-0.745,0-1.35-0.604-1.35-1.35C393.909,399.814,394.513,399.209,395.259,399.209z"/>
								<path style="fill:#FFFFFF;" d="M399.198,399.209L399.198,399.209c-0.746,0-1.35,0.604-1.35,1.35
									c0,0.745,0.604,1.35,1.35,1.35c0.745,0,1.35-0.604,1.35-1.35C400.548,399.814,399.944,399.209,399.198,399.209z"/>
								<path style="fill:#FFFFFF;" d="M401.499,397.832h-7.038l-0.138-0.799h5.785c0.17,0,0.323-0.103,0.386-0.262l1.377-3.471
									c0.084-0.212-0.021-0.452-0.233-0.536c-0.049-0.019-0.1-0.029-0.153-0.029h-7.879l-0.331-1.901
									c-0.034-0.201-0.209-0.347-0.413-0.344h-1.584c-0.228,0-0.413,0.185-0.413,0.413c0,0.228,0.185,0.413,0.413,0.413h1.24
									l1.184,6.997c0.034,0.201,0.209,0.347,0.413,0.344h7.383c0.228,0,0.413-0.185,0.413-0.413
									C401.912,398.017,401.727,397.832,401.499,397.832z"/>
							</g>
						</g>
					</g>
				</g>
				<text transform="matrix(1 0 0 1 389.2054 421.8143)" style="fill:#70899E; font-family:'Prompt-Regular'; font-size:7px;">Shop</text>
			</g>
			<g>
				<g>
					
						<linearGradient id="SVGID_00000109000583970799521960000011324880678558333626_" gradientUnits="userSpaceOnUse" x1="458.8806" y1="378.5124" x2="421.4016" y2="411.827">
						<stop  offset="0" style="stop-color:#0F2335"/>
						<stop  offset="0.4998" style="stop-color:#102538"/>
						<stop  offset="0.8647" style="stop-color:#122B41"/>
						<stop  offset="1" style="stop-color:#142F47"/>
					</linearGradient>
					<path style="fill:url(#SVGID_00000109000583970799521960000011324880678558333626_);" d="M446.168,409.686
						c-4.34,0.574-8.679,0.557-13.019-0.053c-3.842-0.54-6.908-3.605-7.447-7.447c-0.628-4.469-0.628-8.938,0-13.407
						c0.54-3.842,3.605-6.908,7.448-7.447c4.469-0.628,8.938-0.628,13.407,0c3.842,0.54,6.908,3.605,7.447,7.447
						c0.61,4.34,0.627,8.679,0.053,13.018C453.51,405.934,450.306,409.138,446.168,409.686z"/>
					
						<linearGradient id="SVGID_00000159438825509929346500000016820349571953738910_" gradientUnits="userSpaceOnUse" x1="434.7317" y1="387.9369" x2="446.2611" y2="405.8192">
						<stop  offset="0" style="stop-color:#2D9D84"/>
						<stop  offset="0.0028" style="stop-color:#8B68FF"/>
						<stop  offset="0.987" style="stop-color:#6160E7"/>
						<stop  offset="1" style="stop-color:#6060E7"/>
					</linearGradient>
					<path style="fill:url(#SVGID_00000159438825509929346500000016820349571953738910_);" d="M442.513,400.759l-2.283-1.54
						c-0.227-0.153-0.525-0.153-0.752,0l-2.283,1.54c-0.447,0.301-1.049-0.019-1.049-0.557v-8.644c0-0.371,0.301-0.673,0.673-0.673
						h6.071c0.371,0,0.673,0.301,0.673,0.673v8.644C443.562,400.741,442.96,401.061,442.513,400.759z"/>
				</g>
				<text transform="matrix(1 0 0 1 426.6615 421.8143)" style="fill:#70899E; font-family:'Prompt-Regular'; font-size:7px;">Wishlist</text>
			</g>
		</g>
		<g>
			<path style="fill:#0B1825;" d="M690.201,352.768H529.878c-12.277,0-22.23-9.952-22.23-22.23V91.662
				c0-12.277,9.952-22.23,22.23-22.23h160.323c12.277,0,22.23,9.953,22.23,22.23v238.876
				C712.431,342.816,702.478,352.768,690.201,352.768z"/>
			<path style="fill:#0B1825;" d="M690.201,352.768H529.878c-12.277,0-22.23-9.952-22.23-22.23V91.662
				c0-12.277,9.952-22.23,22.23-22.23h160.323c12.277,0,22.23,9.953,22.23,22.23v238.876
				C712.431,342.816,702.478,352.768,690.201,352.768z"/>
			<g>
				<text transform="matrix(1 0 0 1 533.197 110.1186)" style="fill:#EFF4FF; font-family:'Prompt-Medium'; font-size:14px;">Settings</text>
			</g>
			
				<linearGradient id="SVGID_00000092415635742420663050000009882566694413258925_" gradientUnits="userSpaceOnUse" x1="576.7359" y1="247.8351" x2="622.6183" y2="114.4235">
				<stop  offset="0" style="stop-color:#0F2335"/>
				<stop  offset="0.4998" style="stop-color:#102538"/>
				<stop  offset="0.8647" style="stop-color:#122B41"/>
				<stop  offset="1" style="stop-color:#142F47"/>
			</linearGradient>
			<path style="fill:url(#SVGID_00000092415635742420663050000009882566694413258925_);" d="M690.755,143.874H536.491
				c-1.819,0-3.294-1.475-3.294-3.294l0,0c0-1.819,1.475-3.294,3.294-3.294h154.263c1.819,0,3.294,1.475,3.294,3.294l0,0
				C694.049,142.399,692.574,143.874,690.755,143.874z"/>
			
				<linearGradient id="SVGID_00000054242852096267636180000005437000574937636239_" gradientUnits="userSpaceOnUse" x1="530.8723" y1="140.5793" x2="639.9777" y2="140.5793">
				<stop  offset="0" style="stop-color:#6060E7"/>
				<stop  offset="0.5331" style="stop-color:#956FE9"/>
				<stop  offset="1" style="stop-color:#C07BEB"/>
			</linearGradient>
			<path style="fill:url(#SVGID_00000054242852096267636180000005437000574937636239_);" d="M638.049,137.285H536.491
				c-1.819,0-3.294,1.475-3.294,3.294c0,1.819,1.475,3.294,3.294,3.294h101.558V137.285z"/>
			
				<linearGradient id="SVGID_00000157309106115908633310000006158953020712504962_" gradientUnits="userSpaceOnUse" x1="576.7359" y1="276.1716" x2="622.6183" y2="142.76">
				<stop  offset="0" style="stop-color:#0F2335"/>
				<stop  offset="0.4998" style="stop-color:#102538"/>
				<stop  offset="0.8647" style="stop-color:#122B41"/>
				<stop  offset="1" style="stop-color:#142F47"/>
			</linearGradient>
			<path style="fill:url(#SVGID_00000157309106115908633310000006158953020712504962_);" d="M690.755,172.21H536.491
				c-1.819,0-3.294-1.475-3.294-3.294l0,0c0-1.819,1.475-3.294,3.294-3.294h154.263c1.819,0,3.294,1.475,3.294,3.294l0,0
				C694.049,170.735,692.574,172.21,690.755,172.21z"/>
			
				<linearGradient id="SVGID_00000156580065023890743580000007101680735429546425_" gradientUnits="userSpaceOnUse" x1="530.8723" y1="168.9159" x2="597.9391" y2="168.9159">
				<stop  offset="0" style="stop-color:#FF6B1F"/>
				<stop  offset="1" style="stop-color:#FFC21A"/>
			</linearGradient>
			<path style="fill:url(#SVGID_00000156580065023890743580000007101680735429546425_);" d="M596.637,165.622h-60.146
				c-1.819,0-3.294,1.475-3.294,3.294c0,1.819,1.475,3.294,3.294,3.294h60.146V165.622z"/>
			
				<linearGradient id="SVGID_00000178899224005762129050000013188727274102713493_" gradientUnits="userSpaceOnUse" x1="576.7359" y1="304.5081" x2="622.6183" y2="171.0965">
				<stop  offset="0" style="stop-color:#0F2335"/>
				<stop  offset="0.4998" style="stop-color:#102538"/>
				<stop  offset="0.8647" style="stop-color:#122B41"/>
				<stop  offset="1" style="stop-color:#142F47"/>
			</linearGradient>
			<path style="fill:url(#SVGID_00000178899224005762129050000013188727274102713493_);" d="M690.755,200.546H536.491
				c-1.819,0-3.294-1.475-3.294-3.294l0,0c0-1.819,1.475-3.294,3.294-3.294h154.263c1.819,0,3.294,1.475,3.294,3.294l0,0
				C694.049,199.072,692.574,200.546,690.755,200.546z"/>
			
				<linearGradient id="SVGID_00000176034850909490074380000010079189827663162299_" gradientUnits="userSpaceOnUse" x1="680.0351" y1="185.4922" x2="551.5645" y2="204.9039">
				<stop  offset="0" style="stop-color:#2DB985"/>
				<stop  offset="1" style="stop-color:#0A6350"/>
			</linearGradient>
			<path style="fill:url(#SVGID_00000176034850909490074380000010079189827663162299_);" d="M668.166,193.958H536.491
				c-1.819,0-3.294,1.475-3.294,3.294c0,1.819,1.475,3.294,3.294,3.294h131.675V193.958z"/>
			<g>
				<g>
					
						<linearGradient id="SVGID_00000181053474408235452870000018053064638916345788_" gradientUnits="userSpaceOnUse" x1="533.197" y1="271.4981" x2="621.667" y2="271.4981">
						<stop  offset="0" style="stop-color:#6060E7"/>
						<stop  offset="0.5331" style="stop-color:#956FE9"/>
						<stop  offset="1" style="stop-color:#C07BEB"/>
					</linearGradient>
					<path style="fill:url(#SVGID_00000181053474408235452870000018053064638916345788_);" d="M577.432,227.263
						c-24.431,0-44.235,19.805-44.235,44.235s19.804,44.235,44.235,44.235c24.43,0,44.235-19.805,44.235-44.235
						S601.862,227.263,577.432,227.263 M577.432,306.322c-19.233,0-34.824-15.592-34.824-34.824
						c0-19.233,15.591-34.823,34.824-34.823c19.232,0,34.823,15.59,34.823,34.823C612.255,290.73,596.664,306.322,577.432,306.322"
						/>
					
						<linearGradient id="SVGID_00000079481341722028783420000008801438099351499699_" gradientUnits="userSpaceOnUse" x1="584.3433" y1="240.8147" x2="584.3433" y2="307.2278">
						<stop  offset="0" style="stop-color:#FF6B1F"/>
						<stop  offset="1" style="stop-color:#FFC21A"/>
					</linearGradient>
					<path style="fill:url(#SVGID_00000079481341722028783420000008801438099351499699_);" d="M580.709,315.615
						c21.715-1.565,39.273-19.125,40.839-40.839c0.883-12.244-3.227-23.52-10.495-32.013c-1.795-2.098-4.981-2.258-6.934-0.306
						c-1.714,1.714-1.88,4.483-0.298,6.32c5.867,6.807,9.145,15.91,8.303,25.777c-1.425,16.712-14.924,30.212-31.636,31.637
						c-9.868,0.841-18.97-2.436-25.778-8.303c-1.837-1.583-4.605-1.417-6.32,0.298c-1.952,1.952-1.791,5.138,0.306,6.934
						C557.189,312.388,568.465,316.498,580.709,315.615"/>
					
						<linearGradient id="SVGID_00000091715217437382177420000007577492510152312728_" gradientUnits="userSpaceOnUse" x1="534.2705" y1="307.4464" x2="622.2703" y2="304.1523">
						<stop  offset="0" style="stop-color:#2DB985"/>
						<stop  offset="1" style="stop-color:#0A6350"/>
					</linearGradient>
					<path style="fill:url(#SVGID_00000091715217437382177420000007577492510152312728_);" d="M580.709,315.615
						c9.176-0.662,17.606-4.182,24.404-9.663c2.151-1.733,2.262-4.981,0.309-6.934c-1.71-1.711-4.416-1.815-6.306-0.304
						c-5.216,4.172-11.639,6.881-18.628,7.477c-9.755,0.832-18.761-2.361-25.543-8.101c-1.863-1.578-4.661-1.682-6.442-0.013
						c-2.07,1.94-1.944,5.214,0.193,7.043C557.189,312.388,568.465,316.498,580.709,315.615"/>
				</g>
			</g>
			<g>
				<g>
					<g>
						<path style="fill:#0B1825;" d="M577.432,316.233c-24.667,0-44.734-20.068-44.734-44.735c0-24.667,20.067-44.735,44.734-44.735
							s44.735,20.068,44.735,44.735C622.167,296.165,602.099,316.233,577.432,316.233z M577.432,227.763
							c-24.115,0-43.734,19.619-43.734,43.735c0,24.116,19.619,43.735,43.734,43.735c24.116,0,43.735-19.619,43.735-43.735
							C621.167,247.382,601.548,227.763,577.432,227.763z M577.432,306.822c-19.477,0-35.323-15.847-35.323-35.324
							c0-19.476,15.846-35.323,35.323-35.323c19.478,0,35.323,15.846,35.323,35.323
							C612.755,290.976,596.909,306.822,577.432,306.822z M577.432,237.175c-18.926,0-34.323,15.397-34.323,34.323
							c0,18.927,15.397,34.324,34.323,34.324c18.926,0,34.323-15.397,34.323-34.324
							C611.755,252.572,596.357,237.175,577.432,237.175z"/>
						<path style="fill:#0B1825;" d="M577.435,316.233c-10.689,0-20.903-3.75-29.064-10.733c-1.117-0.957-1.791-2.344-1.847-3.805
							c-0.057-1.459,0.48-2.831,1.513-3.863c1.914-1.913,4.988-2.056,6.999-0.323c7.048,6.073,16.075,8.978,25.41,8.185
							c16.379-1.397,29.783-14.803,31.18-31.182c0.797-9.338-2.109-18.361-8.184-25.408c-1.732-2.012-1.591-5.086,0.323-7
							c1.033-1.032,2.398-1.569,3.865-1.513c1.46,0.057,2.846,0.73,3.803,1.848c7.701,8.999,11.471,20.497,10.613,32.374
							c-1.584,21.962-19.34,39.718-41.302,41.302l0,0C579.638,316.193,578.534,316.233,577.435,316.233z M551.74,297.296
							c-1.082,0-2.172,0.419-2.996,1.243c-0.833,0.833-1.267,1.939-1.221,3.117c0.046,1.184,0.592,2.308,1.498,3.084
							c8.798,7.528,20.041,11.214,31.651,10.376l0,0c21.471-1.548,38.828-18.905,40.376-40.376
							c0.839-11.613-2.846-22.854-10.375-31.652c-0.776-0.907-1.899-1.453-3.082-1.499c-1.168-0.038-2.285,0.387-3.119,1.221
							c-1.546,1.546-1.665,4.023-0.273,5.64c6.251,7.252,9.242,16.538,8.422,26.146c-1.438,16.857-15.233,30.654-32.091,32.093
							c-9.608,0.823-18.894-2.172-26.148-8.423C553.629,297.616,552.688,297.296,551.74,297.296z"/>
						<path style="fill:#0B1825;" d="M577.435,316.233c-10.689,0-20.903-3.75-29.064-10.733c-1.142-0.978-1.816-2.395-1.85-3.889
							c-0.033-1.492,0.549-2.877,1.64-3.899c1.924-1.802,4.981-1.804,7.108-0.004c7.014,5.936,15.958,8.77,25.177,7.985
							c6.697-0.572,13.046-3.12,18.358-7.37c2.101-1.68,5.098-1.532,6.972,0.341c1.051,1.051,1.607,2.505,1.528,3.989
							c-0.078,1.445-0.762,2.79-1.877,3.689c-7.122,5.742-15.657,9.121-24.682,9.772l0,0
							C579.638,316.193,578.534,316.233,577.435,316.233z M551.642,297.358c-1.024,0-2.025,0.36-2.797,1.084
							c-0.881,0.825-1.351,1.942-1.323,3.146c0.027,1.21,0.574,2.358,1.5,3.151c8.798,7.528,20.041,11.214,31.651,10.376
							c8.82-0.636,17.164-3.939,24.127-9.554c0.907-0.73,1.441-1.783,1.505-2.963c0.064-1.201-0.386-2.378-1.236-3.229
							c-1.514-1.514-3.938-1.629-5.64-0.267c-5.469,4.374-12.003,6.996-18.897,7.585c-9.497,0.814-18.692-2.109-25.909-8.218
							C553.746,297.729,552.682,297.358,551.642,297.358z"/>
					</g>
				</g>
			</g>
			<path style="fill:#274157;" d="M688.343,104.037h-0.98c-0.203-0.871-0.546-1.687-1.004-2.425l0.693-0.693
				c0.299-0.299,0.299-0.783,0-1.082l-1.539-1.539c-0.299-0.299-0.783-0.299-1.081,0l-0.693,0.693
				c-0.738-0.459-1.554-0.801-2.425-1.004v-0.98c0-0.422-0.342-0.765-0.765-0.765h-2.176c-0.422,0-0.765,0.342-0.765,0.765v0.98
				c-0.87,0.203-1.687,0.546-2.425,1.004l-0.693-0.693c-0.299-0.299-0.783-0.299-1.081,0l-1.539,1.539
				c-0.299,0.299-0.299,0.783,0,1.082l0.693,0.693c-0.458,0.738-0.801,1.554-1.004,2.425h-0.98c-0.422,0-0.765,0.342-0.765,0.765
				v2.177c0,0.422,0.342,0.765,0.765,0.765h0.98c0.203,0.871,0.546,1.687,1.004,2.425l-0.693,0.693
				c-0.299,0.299-0.299,0.783,0,1.082l1.539,1.539c0.299,0.299,0.783,0.299,1.081,0l0.693-0.693
				c0.738,0.458,1.555,0.801,2.425,1.004v0.98c0,0.422,0.342,0.765,0.765,0.765h2.176c0.422,0,0.765-0.342,0.765-0.765v-0.98
				c0.871-0.203,1.687-0.546,2.425-1.004l0.693,0.693c0.299,0.299,0.783,0.299,1.081,0l1.539-1.539c0.299-0.299,0.299-0.783,0-1.082
				l-0.693-0.693c0.458-0.738,0.801-1.554,1.004-2.425h0.98c0.422,0,0.765-0.342,0.765-0.765v-2.177
				C689.107,104.379,688.765,104.037,688.343,104.037z M679.461,109.772c-2.144,0-3.882-1.738-3.882-3.882
				c0-2.144,1.738-3.882,3.882-3.882c2.144,0,3.882,1.738,3.882,3.882C683.343,108.034,681.605,109.772,679.461,109.772z"/>
			<g>
				<text transform="matrix(1 0 0 1 533.1973 130.1837)" style="fill:#70899E; font-family:'Prompt-Medium'; font-size:8.4076px;">Food</text>
			</g>
			<g>
				<text transform="matrix(1 0 0 1 533.1973 158.7719)" style="fill:#70899E; font-family:'Prompt-Medium'; font-size:8.4076px;">Savings</text>
			</g>
			<g>
				<text transform="matrix(1 0 0 1 533.1973 188.419)" style="fill:#70899E; font-family:'Prompt-Medium'; font-size:8.4076px;">Rent</text>
			</g>
			
				<text transform="matrix(1 0 0 1 564.9174 278.4099)" style="fill:#EFF4FF; font-family:'Prompt-SemiBold'; font-size:20.2159px;">6k</text>
			<g>
				<g>
					<g>
						
							<linearGradient id="SVGID_00000177445668322005958740000002817462560859623343_" gradientUnits="userSpaceOnUse" x1="650.8722" y1="246.0829" x2="694.0487" y2="246.0829">
							<stop  offset="0" style="stop-color:#0F2335"/>
							<stop  offset="0.4998" style="stop-color:#102538"/>
							<stop  offset="0.8647" style="stop-color:#122B41"/>
							<stop  offset="1" style="stop-color:#142F47"/>
						</linearGradient>
						<path style="fill:url(#SVGID_00000177445668322005958740000002817462560859623343_);" d="M686.185,253.947h-27.448
							c-4.343,0-7.864-3.521-7.864-7.864l0,0c0-4.343,3.521-7.864,7.864-7.864h27.448c4.343,0,7.864,3.521,7.864,7.864l0,0
							C694.049,250.426,690.528,253.947,686.185,253.947z"/>
						
							<linearGradient id="SVGID_00000084512272925184463450000016565686208018134919_" gradientUnits="userSpaceOnUse" x1="679.2575" y1="245.9487" x2="690.8428" y2="245.9487">
							<stop  offset="0" style="stop-color:#2D9D84"/>
							<stop  offset="0.0028" style="stop-color:#8B68FF"/>
							<stop  offset="0.987" style="stop-color:#6160E7"/>
							<stop  offset="1" style="stop-color:#6060E7"/>
						</linearGradient>
						<path style="fill:url(#SVGID_00000084512272925184463450000016565686208018134919_);" d="M690.843,245.949
							c0,3.199-2.593,5.793-5.793,5.793c-3.199,0-5.793-2.593-5.793-5.793s2.594-5.793,5.793-5.793
							C688.249,240.156,690.843,242.749,690.843,245.949z"/>
					</g>
					<g>
						
							<linearGradient id="SVGID_00000003080586921067328390000016147574558613271941_" gradientUnits="userSpaceOnUse" x1="650.8722" y1="272.7874" x2="694.0487" y2="272.7874">
							<stop  offset="0" style="stop-color:#0F2335"/>
							<stop  offset="0.4998" style="stop-color:#102538"/>
							<stop  offset="0.8647" style="stop-color:#122B41"/>
							<stop  offset="1" style="stop-color:#142F47"/>
						</linearGradient>
						<path style="fill:url(#SVGID_00000003080586921067328390000016147574558613271941_);" d="M686.185,280.652h-27.448
							c-4.343,0-7.864-3.521-7.864-7.864l0,0c0-4.343,3.521-7.864,7.864-7.864h27.448c4.343,0,7.864,3.521,7.864,7.864l0,0
							C694.049,277.131,690.528,280.652,686.185,280.652z"/>
						
							<linearGradient id="SVGID_00000171693887791252486520000013644464026280423095_" gradientUnits="userSpaceOnUse" x1="679.2575" y1="272.6531" x2="690.8428" y2="272.6531">
							<stop  offset="0" style="stop-color:#FF6B1F"/>
							<stop  offset="1" style="stop-color:#FF8D02"/>
						</linearGradient>
						<path style="fill:url(#SVGID_00000171693887791252486520000013644464026280423095_);" d="M690.843,272.653
							c0,3.199-2.593,5.793-5.793,5.793c-3.199,0-5.793-2.594-5.793-5.793c0-3.199,2.594-5.793,5.793-5.793
							C688.249,266.86,690.843,269.454,690.843,272.653z"/>
					</g>
					<g>
						
							<linearGradient id="SVGID_00000029017517158629544040000003953090405429297341_" gradientUnits="userSpaceOnUse" x1="650.8722" y1="299.4919" x2="694.0487" y2="299.4919">
							<stop  offset="0" style="stop-color:#0F2335"/>
							<stop  offset="0.4998" style="stop-color:#102538"/>
							<stop  offset="0.8647" style="stop-color:#122B41"/>
							<stop  offset="1" style="stop-color:#142F47"/>
						</linearGradient>
						<path style="fill:url(#SVGID_00000029017517158629544040000003953090405429297341_);" d="M686.185,307.356h-27.448
							c-4.343,0-7.864-3.521-7.864-7.864v0c0-4.343,3.521-7.864,7.864-7.864h27.448c4.343,0,7.864,3.521,7.864,7.864v0
							C694.049,303.835,690.528,307.356,686.185,307.356z"/>
						
							<linearGradient id="SVGID_00000102508485914980757630000016853569864880568217_" gradientUnits="userSpaceOnUse" x1="679.2575" y1="299.3575" x2="690.8428" y2="299.3575">
							<stop  offset="0" style="stop-color:#2D9D84"/>
							<stop  offset="1" style="stop-color:#2DB985"/>
						</linearGradient>
						<path style="fill:url(#SVGID_00000102508485914980757630000016853569864880568217_);" d="M690.843,299.358
							c0,3.199-2.593,5.793-5.793,5.793c-3.199,0-5.793-2.593-5.793-5.793c0-3.199,2.594-5.793,5.793-5.793
							C688.249,293.565,690.843,296.158,690.843,299.358z"/>
					</g>
				</g>
				<polyline style="fill:none;stroke:#EFF4FF;stroke-linecap:round;stroke-miterlimit:10;" points="682.725,245.949 
					684.32,247.543 687.622,244.241 				"/>
				<polyline style="fill:none;stroke:#EFF4FF;stroke-linecap:round;stroke-miterlimit:10;" points="682.725,272.71 684.32,274.304 
					687.622,271.002 				"/>
				<polyline style="fill:none;stroke:#EFF4FF;stroke-linecap:round;stroke-miterlimit:10;" points="682.725,299.47 684.32,301.065 
					687.622,297.763 				"/>
			</g>
		</g>
		<g>
			<path style="fill:#0B1825;" d="M690.201,430.684H529.878c-12.277,0-22.23-9.953-22.23-22.23V389.87
				c0-12.277,9.952-22.23,22.23-22.23h160.323c12.277,0,22.23,9.953,22.23,22.23v18.584
				C712.431,420.731,702.478,430.684,690.201,430.684z"/>
			<g>
				
					<linearGradient id="SVGID_00000176013262126983263770000007702519594816602302_" gradientUnits="userSpaceOnUse" x1="562.0085" y1="379.3256" x2="519.3098" y2="417.2799">
					<stop  offset="0" style="stop-color:#2D9D84"/>
					<stop  offset="0.0028" style="stop-color:#8B68FF"/>
					<stop  offset="0.987" style="stop-color:#6160E7"/>
					<stop  offset="1" style="stop-color:#6060E7"/>
				</linearGradient>
				<path style="fill:url(#SVGID_00000176013262126983263770000007702519594816602302_);" d="M547.526,414.841
					c-4.944,0.654-9.888,0.634-14.832-0.06c-4.377-0.615-7.87-4.108-8.484-8.485c-0.715-5.091-0.715-10.183,0-15.274
					c0.615-4.377,4.107-7.87,8.485-8.485c5.091-0.715,10.183-0.715,15.275,0c4.377,0.615,7.87,4.107,8.485,8.484
					c0.695,4.944,0.715,9.888,0.06,14.832C555.89,410.566,552.239,414.217,547.526,414.841z"/>
			</g>
			<path style="fill:#FFFFFF;" d="M535.018,398.658v-3.902c0-1.489,1.612-2.42,2.902-1.675l3.379,1.951l3.379,1.951
				c1.29,0.745,1.29,2.606,0,3.351l-3.379,1.951l-3.379,1.951c-1.29,0.745-2.902-0.186-2.902-1.675V398.658z"/>
			
				<linearGradient id="SVGID_00000013891106198806309450000009654059438831497857_" gradientUnits="userSpaceOnUse" x1="568.284" y1="399.1921" x2="690.8428" y2="399.1921">
				<stop  offset="0" style="stop-color:#0F2335"/>
				<stop  offset="0.4998" style="stop-color:#102538"/>
				<stop  offset="0.8647" style="stop-color:#122B41"/>
				<stop  offset="1" style="stop-color:#142F47"/>
			</linearGradient>
			<path style="fill:url(#SVGID_00000013891106198806309450000009654059438831497857_);" d="M688.126,401.909H571.001
				c-1.501,0-2.717-1.216-2.717-2.717l0,0c0-1.501,1.216-2.717,2.717-2.717h117.125c1.5,0,2.717,1.216,2.717,2.717l0,0
				C690.843,400.693,689.626,401.909,688.126,401.909z"/>
			
				<linearGradient id="SVGID_00000160163270798819632690000014063417522731904698_" gradientUnits="userSpaceOnUse" x1="568.284" y1="399.1921" x2="690.8425" y2="399.1921">
				<stop  offset="0" style="stop-color:#6060E7"/>
				<stop  offset="0.5331" style="stop-color:#956FE9"/>
				<stop  offset="1" style="stop-color:#C07BEB"/>
			</linearGradient>
			<path style="fill:url(#SVGID_00000160163270798819632690000014063417522731904698_);" d="M650.519,396.475h-79.518
				c-1.501,0-2.717,1.216-2.717,2.717c0,1.5,1.216,2.717,2.717,2.717h79.518V396.475z"/>
			<g>
				<text transform="matrix(1 0 0 1 673.7042 390.6807)" style="fill:#70899E; font-family:'Prompt-Medium'; font-size:8.4076px;">2:45</text>
			</g>
		</g>
	</g>
</g>
</svg>
